<?xml version="1.0" encoding="UTF-8" standalone="no"?>
<svg
   xmlns:xmpRights="http://ns.adobe.com/xap/1.0/rights/"
   xmlns:xmp="http://ns.adobe.com/xap/1.0/"
   xmlns:x="adobe:ns:meta/"
   xmlns:dc="http://purl.org/dc/elements/1.1/"
   xmlns:cc="http://creativecommons.org/ns#"
   xmlns:rdf="http://www.w3.org/1999/02/22-rdf-syntax-ns#"
   xmlns:svg="http://www.w3.org/2000/svg"
   xmlns="http://www.w3.org/2000/svg"
   xmlns:xlink="http://www.w3.org/1999/xlink"
   xmlns:sodipodi="http://sodipodi.sourceforge.net/DTD/sodipodi-0.dtd"
   xmlns:inkscape="http://www.inkscape.org/namespaces/inkscape"
   inkscape:version="1.0 (4035a4f, 2020-05-01)"
   sodipodi:docname="logo_wall.svg"
   id="svg44"
   version="1.1"
   viewBox="0 0 538 137"
   height="137"
   width="538">
  <sodipodi:namedview
     inkscape:guide-bbox="true"
     showguides="true"
     inkscape:current-layer="svg44"
     inkscape:window-maximized="0"
     inkscape:window-y="23"
     inkscape:window-x="0"
     inkscape:cy="12.067555"
     inkscape:cx="407.95027"
     inkscape:zoom="2.0910781"
     inkscape:snap-global="false"
     inkscape:object-paths="true"
     showgrid="false"
     id="namedview46"
     inkscape:window-height="754"
     inkscape:window-width="1280"
     inkscape:pageshadow="2"
     inkscape:pageopacity="0"
     guidetolerance="10"
     gridtolerance="10"
     objecttolerance="10"
     borderopacity="1"
     bordercolor="#666666"
     pagecolor="#ffffff"
     inkscape:document-rotation="0" />
  <metadata
     id="metadata10">
<?xpacket begin="﻿" id="W5M0MpCehiHzreSzNTczkc9d"?>    <x:xmpmeta
       x:xmptk="Adobe XMP Core 6.0-c002 79.164460, 2020/05/12-16:04:17        ">
      <metadata>
        <rdf:RDF>
          <rdf:Description
             rdf:about="">
            <xmp:CreatorTool>Adobe Photoshop CS3 Macintosh</xmp:CreatorTool>
            <xmpRights:Marked>False</xmpRights:Marked>
          </rdf:Description>
          <cc:Work
             rdf:about="">
            <dc:format>image/svg+xml</dc:format>
            <dc:type
               rdf:resource="http://purl.org/dc/dcmitype/StillImage" />
            <dc:title></dc:title>
          </cc:Work>
        </rdf:RDF>
      </metadata>
    </x:xmpmeta>
<?xpacket end="w"?>  </metadata>
  <defs
     id="defs36">
    <linearGradient
       id="linearGradient81668"
       inkscape:collect="always">
      <stop
         id="stop81664"
         offset="0"
         style="stop-color:#ffffff;stop-opacity:1;" />
      <stop
         id="stop81666"
         offset="1"
         style="stop-color:#e6e6e6;stop-opacity:1" />
    </linearGradient>
    <style
       id="style12">
      .cls-1 {
        font-size: 140px;
        filter: url(#filter);
        font-family: &quot;Heiti SC&quot;;
        font-weight: 300;
      }

      .cls-1, .cls-2 {
        fill: #4d5151;
      }

      .cls-2 {
        font-size: 26px;
        filter: url(#filter-2);
        text-anchor: middle;
        font-family: &quot;Heiti TC&quot;;
        font-weight: 500;
      }
    </style>
    <filter
       filterUnits="userSpaceOnUse"
       height="108"
       width="538"
       y="3"
       x="0"
       id="filter">
      <feOffset
         id="feOffset14"
         in="SourceAlpha"
         dy="1"
         result="offset" />
      <feGaussianBlur
         id="feGaussianBlur16"
         result="blur" />
      <feFlood
         id="feFlood18"
         flood-opacity="0.5"
         flood-color="#fff"
         result="flood" />
      <feComposite
         id="feComposite20"
         in2="blur"
         operator="in"
         result="composite" />
      <feBlend
         id="feBlend22"
         in2="composite"
         in="SourceGraphic"
         result="blend" />
    </filter>
    <filter
       filterUnits="userSpaceOnUse"
       height="21"
       width="227"
       y="113"
       x="306"
       id="filter-2">
      <feOffset
         id="feOffset25"
         in="SourceAlpha"
         dy="1"
         result="offset" />
      <feGaussianBlur
         id="feGaussianBlur27"
         result="blur" />
      <feFlood
         id="feFlood29"
         flood-opacity="0.5"
         flood-color="#fff"
         result="flood" />
      <feComposite
         id="feComposite31"
         in2="blur"
         operator="in"
         result="composite" />
      <feBlend
         id="feBlend33"
         in2="composite"
         in="SourceGraphic"
         result="blend" />
    </filter>
    <linearGradient
       gradientTransform="translate(-0.95644444,-1.5217778)"
       y2="136.67667"
       x2="315.13086"
       y1="75.645439"
       x1="315.13086"
       gradientUnits="userSpaceOnUse"
       id="linearGradient81672"
       xlink:href="#linearGradient81668"
       inkscape:collect="always" />
    <filter
       id="filter-5"
       x="0"
       y="3"
       width="538"
       height="108"
       filterUnits="userSpaceOnUse">
      <feOffset
         result="offset"
         dy="1"
         in="SourceAlpha"
         id="feOffset14-7" />
      <feGaussianBlur
         result="blur"
         id="feGaussianBlur16-2" />
      <feFlood
         result="flood"
         flood-color="#fff"
         flood-opacity="0.5"
         id="feFlood18-9" />
      <feComposite
         result="composite"
         operator="in"
         in2="blur"
         id="feComposite20-7" />
      <feBlend
         mode="normal"
         result="blend"
         in="SourceGraphic"
         in2="composite"
         id="feBlend22-5" />
    </filter>
    <mask
       id="mask82261"
       maskUnits="userSpaceOnUse">
      <ellipse
         ry="4.7822223"
         rx="10.76"
         cy="-20.085333"
         cx="187.70222"
         id="ellipse82263"
         style="opacity:1;fill:#2b0000;fill-opacity:1;fill-rule:nonzero;stroke:none" />
    </mask>
    <filter
       id="filter-2-8"
       x="306"
       y="113"
       width="227"
       height="21"
       filterUnits="userSpaceOnUse">
      <feOffset
         result="offset"
         dy="1"
         in="SourceAlpha"
         id="feOffset25-9" />
      <feGaussianBlur
         result="blur"
         id="feGaussianBlur27-7" />
      <feFlood
         result="flood"
         flood-color="#fff"
         flood-opacity="0.5"
         id="feFlood29-5" />
      <feComposite
         result="composite"
         operator="in"
         in2="blur"
         id="feComposite31-5" />
      <feBlend
         mode="normal"
         result="blend"
         in="SourceGraphic"
         in2="composite"
         id="feBlend33-2" />
    </filter>
    <linearGradient
       y2="136.67667"
       x2="315.13086"
       y1="75.645439"
       x1="315.13086"
       gradientTransform="translate(-0.95644444,-2.5653356)"
       gradientUnits="userSpaceOnUse"
       id="linearGradient82783"
       xlink:href="#linearGradient81668"
       inkscape:collect="always" />
  </defs>
  <path
     d="m 315.13086,2.3035138 c -9.43663,1.6e-5 -18.42673,1.8776042 -26.60352,5.2734375 -8.1768,3.3958327 -15.54053,8.3088277 -21.72461,14.3808587 -6.18407,6.072032 -11.18803,13.303421 -14.64648,21.332031 -3.45845,8.028611 -0.1114,16.377008 -0.11133,25.642578 -7e-5,9.26557 -3.34712,18.571 0.11133,26.59961 3.45845,8.028601 8.46241,15.258041 14.64648,21.330071 6.18408,6.07203 13.54781,10.98698 21.72461,14.38281 8.17679,3.39584 17.16689,5.27342 26.60352,5.27344 0.48703,-7.6e-4 0.97404,-0.007 1.46094,-0.0176 v 0.002 H 537 V 108.3914 H 370.76172 c 4.13454,-5.68819 7.31398,-11.939616 9.45898,-18.515621 2.14499,-6.576004 -1.52571,-13.476581 -1.52539,-20.464844 7e-5,-9.26557 2.86861,-18.092483 -0.58984,-26.121094 C 374.64702,35.261231 369.64305,28.029842 363.45898,21.95781 357.2749,15.885779 349.91117,10.972784 341.73438,7.5769513 333.55757,4.181118 324.56749,2.3035298 315.13086,2.3035138 Z m -1.7207,27.7382802 a 33.475555,35.388443 0 0 1 0.30273,0 33.475555,35.388443 0 0 1 33.47656,35.386719 33.475555,35.388443 0 0 1 -33.47656,35.388667 33.475555,35.388443 0 0 1 -33.47461,-35.388667 33.475555,35.388443 0 0 1 33.17188,-35.386719 z"
     style="display:inline;fill:#808080;fill-opacity:1;fill-rule:evenodd;stroke-width:1.18589"
     id="path80804" />
  <path
     d="m 315.13086,0.39003442 c -18.87326,4e-5 -35.95999,7.51218998 -48.32813,19.65624958 -6.18407,6.07203 -11.18803,13.30147 -14.64648,21.330082 -3.45845,8.02861 0.84563,16.855524 0.8457,26.121094 -7e-5,9.265571 -4.30415,18.092482 -0.8457,26.121093 3.45845,8.028597 8.46241,15.259997 14.64648,21.332027 12.36815,12.14406 29.45487,19.65427 48.32813,19.6543 0.48703,-7.6e-4 0.97404,-0.007 1.46094,-0.0176 v 0.002 H 537 V 106.47792 H 370.76172 c 4.13454,-5.68819 7.31398,-11.939611 9.45898,-18.515617 2.14499,-6.576005 -2.48274,-13.955096 -2.48242,-20.943359 7e-5,-9.26557 3.82564,-17.613967 0.36719,-25.642578 C 374.64702,33.347754 369.64305,26.118324 363.45898,20.046284 351.09083,7.9022244 334.00411,0.39007442 315.13086,0.39003442 Z M 312.93164,28.606834 a 33.475555,35.388443 0 0 1 0.30469,0 33.475555,35.388443 0 0 1 33.47461,35.388672 33.475555,35.388443 0 0 1 -33.47461,35.386718 33.475555,35.388443 0 0 1 -33.47656,-35.386718 33.475555,35.388443 0 0 1 33.17187,-35.388672 z"
     style="display:inline;fill:url(#linearGradient82783);fill-opacity:1;fill-rule:nonzero;stroke:none;stroke-width:1.18589"
     id="path80811" />
  <text
     inkscape:label="wallace sombra"
     id="text1099"
     y="114.60281"
     x="-0.16312499"
     style="font-style:normal;font-variant:normal;font-weight:300;font-stretch:normal;font-size:140px;line-height:1.25;font-family:'Heiti SC';-inkscape-font-specification:'Heiti SC Light';display:inline;fill:#e6e6e6;fill-opacity:1;stroke:none;"
     xml:space="preserve"><tspan
       style="font-style:normal;font-variant:normal;font-weight:300;font-stretch:normal;font-size:140px;font-family:'Heiti SC';-inkscape-font-specification:'Heiti SC Light';fill:#e6e6e6;fill-opacity:1;"
       y="114.60281"
       x="-0.16312499"
       id="tspan1097"
       sodipodi:role="line">wallace</tspan></text>
  <text
     inkscape:label="wallace"
     xml:space="preserve"
     style="font-style:normal;font-variant:normal;font-weight:300;font-stretch:normal;font-size:140px;line-height:1.25;font-family:'Heiti SC';-inkscape-font-specification:'Heiti SC Light';display:inline;fill:#4d5151;fill-opacity:1;stroke:none"
     x="-0.16312499"
     y="112.27245"
     id="text1099-9"><tspan
       sodipodi:role="line"
       id="tspan1097-8"
       x="-0.16312499"
       y="112.27245"
       style="font-style:normal;font-variant:normal;font-weight:300;font-stretch:normal;font-size:140px;font-family:'Heiti SC';-inkscape-font-specification:'Heiti SC Light';fill:#4d5151;fill-opacity:1">wallace</tspan></text>
  <text
     inkscape:label="oliveira sombra"
     id="text1213"
     y="132.21867"
     x="419.90723"
     style="font-style:normal;font-weight:normal;font-size:24px;line-height:1.25;font-family:sans-serif;letter-spacing:4.50000000000000000px;fill:#e6e6e6;fill-opacity:1;stroke:none;"
     xml:space="preserve"><tspan
       style="font-style:normal;font-variant:normal;font-weight:500;font-stretch:normal;font-size:24px;font-family:'Heiti TC';-inkscape-font-specification:'Heiti TC Medium';text-align:center;text-anchor:middle;fill:#e6e6e6;fill-opacity:1;"
       y="132.21867"
       x="422.15723"
       id="tspan1211"
       sodipodi:role="line">OLIVEIRA.COM</tspan></text>
  <text
     inkscape:label="oliveira"
     xml:space="preserve"
     style="font-style:normal;font-weight:normal;font-size:24px;line-height:1.25;font-family:sans-serif;letter-spacing:4.5px;fill:#4d5151;fill-opacity:1;stroke:none"
     x="419.90723"
     y="130.95332"
     id="text1213-3"><tspan
       sodipodi:role="line"
       id="tspan1211-8"
       x="422.15723"
       y="130.95332"
       style="font-style:normal;font-variant:normal;font-weight:500;font-stretch:normal;font-size:24px;font-family:'Heiti TC';-inkscape-font-specification:'Heiti TC Medium';text-align:center;text-anchor:middle;fill:#4d5151;fill-opacity:1">OLIVEIRA.COM</tspan></text>
</svg>
