<?xml version="1.0" encoding="UTF-8" standalone="no"?>
<svg
   xmlns:xmpRights="http://ns.adobe.com/xap/1.0/rights/"
   xmlns:xmp="http://ns.adobe.com/xap/1.0/"
   xmlns:x="adobe:ns:meta/"
   xmlns:dc="http://purl.org/dc/elements/1.1/"
   xmlns:cc="http://creativecommons.org/ns#"
   xmlns:rdf="http://www.w3.org/1999/02/22-rdf-syntax-ns#"
   xmlns:svg="http://www.w3.org/2000/svg"
   xmlns="http://www.w3.org/2000/svg"
   xmlns:xlink="http://www.w3.org/1999/xlink"
   xmlns:sodipodi="http://sodipodi.sourceforge.net/DTD/sodipodi-0.dtd"
   xmlns:inkscape="http://www.inkscape.org/namespaces/inkscape"
   width="538"
   height="137"
   viewBox="0 0 538 137"
   version="1.1"
   id="svg44"
   sodipodi:docname="logo_wall_topo.svg"
   inkscape:version="1.0 (4035a4f, 2020-05-01)">
  <sodipodi:namedview
     inkscape:document-rotation="0"
     pagecolor="#ffffff"
     bordercolor="#666666"
     borderopacity="1"
     objecttolerance="10"
     gridtolerance="10"
     guidetolerance="10"
     inkscape:pageopacity="0"
     inkscape:pageshadow="2"
     inkscape:window-width="1280"
     inkscape:window-height="754"
     id="namedview46"
     showgrid="false"
     inkscape:object-paths="true"
     inkscape:snap-global="false"
     inkscape:zoom="2.0910781"
     inkscape:cx="432.88421"
     inkscape:cy="92.147878"
     inkscape:window-x="0"
     inkscape:window-y="23"
     inkscape:window-maximized="0"
     inkscape:current-layer="svg44"
     showguides="true"
     inkscape:guide-bbox="true" />
  <metadata
     id="metadata10">
<?xpacket begin="﻿" id="W5M0MpCehiHzreSzNTczkc9d"?>    <x:xmpmeta
       x:xmptk="Adobe XMP Core 6.0-c002 79.164460, 2020/05/12-16:04:17        ">
      <metadata>
        <rdf:RDF>
          <rdf:Description
             rdf:about="">
            <xmp:CreatorTool>Adobe Photoshop CS3 Macintosh</xmp:CreatorTool>
            <xmpRights:Marked>False</xmpRights:Marked>
          </rdf:Description>
          <cc:Work
             rdf:about="">
            <dc:format>image/svg+xml</dc:format>
            <dc:type
               rdf:resource="http://purl.org/dc/dcmitype/StillImage" />
            <dc:title></dc:title>
          </cc:Work>
        </rdf:RDF>
      </metadata>
    </x:xmpmeta>
<?xpacket end="w"?>  </metadata>
  <defs
     id="defs36">
    <linearGradient
       inkscape:collect="always"
       id="linearGradient81668">
      <stop
         style="stop-color:#ffffff;stop-opacity:1;"
         offset="0"
         id="stop81664" />
      <stop
         style="stop-color:#e6e6e6;stop-opacity:1"
         offset="1"
         id="stop81666" />
    </linearGradient>
    <style
       id="style12">
      .cls-1 {
        font-size: 140px;
        filter: url(#filter);
        font-family: &quot;Heiti SC&quot;;
        font-weight: 300;
      }

      .cls-1, .cls-2 {
        fill: #4d5151;
      }

      .cls-2 {
        font-size: 26px;
        filter: url(#filter-2);
        text-anchor: middle;
        font-family: &quot;Heiti TC&quot;;
        font-weight: 500;
      }
    </style>
    <filter
       id="filter"
       x="0"
       y="3"
       width="538"
       height="108"
       filterUnits="userSpaceOnUse">
      <feOffset
         result="offset"
         dy="1"
         in="SourceAlpha"
         id="feOffset14" />
      <feGaussianBlur
         result="blur"
         id="feGaussianBlur16" />
      <feFlood
         result="flood"
         flood-color="#fff"
         flood-opacity="0.5"
         id="feFlood18" />
      <feComposite
         result="composite"
         operator="in"
         in2="blur"
         id="feComposite20" />
      <feBlend
         result="blend"
         in="SourceGraphic"
         in2="composite"
         id="feBlend22" />
    </filter>
    <filter
       id="filter-2"
       x="306"
       y="113"
       width="227"
       height="21"
       filterUnits="userSpaceOnUse">
      <feOffset
         result="offset"
         dy="1"
         in="SourceAlpha"
         id="feOffset25" />
      <feGaussianBlur
         result="blur"
         id="feGaussianBlur27" />
      <feFlood
         result="flood"
         flood-color="#fff"
         flood-opacity="0.5"
         id="feFlood29" />
      <feComposite
         result="composite"
         operator="in"
         in2="blur"
         id="feComposite31" />
      <feBlend
         result="blend"
         in="SourceGraphic"
         in2="composite"
         id="feBlend33" />
    </filter>
    <linearGradient
       inkscape:collect="always"
       xlink:href="#linearGradient81668"
       id="linearGradient81672"
       gradientUnits="userSpaceOnUse"
       x1="315.13086"
       y1="75.645439"
       x2="315.13086"
       y2="136.67667"
       gradientTransform="translate(-0.95644444,-1.5217778)" />
    <filter
       filterUnits="userSpaceOnUse"
       height="108"
       width="538"
       y="3"
       x="0"
       id="filter-5">
      <feOffset
         id="feOffset14-7"
         in="SourceAlpha"
         dy="1"
         result="offset" />
      <feGaussianBlur
         id="feGaussianBlur16-2"
         result="blur" />
      <feFlood
         id="feFlood18-9"
         flood-opacity="0.5"
         flood-color="#fff"
         result="flood" />
      <feComposite
         id="feComposite20-7"
         in2="blur"
         operator="in"
         result="composite" />
      <feBlend
         id="feBlend22-5"
         in2="composite"
         in="SourceGraphic"
         result="blend"
         mode="normal" />
    </filter>
    <mask
       maskUnits="userSpaceOnUse"
       id="mask82261">
      <ellipse
         style="opacity:1;fill:#2b0000;fill-opacity:1;fill-rule:nonzero;stroke:none"
         id="ellipse82263"
         cx="187.70222"
         cy="-20.085333"
         rx="10.76"
         ry="4.7822223" />
    </mask>
    <filter
       filterUnits="userSpaceOnUse"
       height="21"
       width="227"
       y="113"
       x="306"
       id="filter-2-8">
      <feOffset
         id="feOffset25-9"
         in="SourceAlpha"
         dy="1"
         result="offset" />
      <feGaussianBlur
         id="feGaussianBlur27-7"
         result="blur" />
      <feFlood
         id="feFlood29-5"
         flood-opacity="0.5"
         flood-color="#fff"
         result="flood" />
      <feComposite
         id="feComposite31-5"
         in2="blur"
         operator="in"
         result="composite" />
      <feBlend
         id="feBlend33-2"
         in2="composite"
         in="SourceGraphic"
         result="blend"
         mode="normal" />
    </filter>
    <linearGradient
       inkscape:collect="always"
       xlink:href="#linearGradient81668"
       id="linearGradient82783"
       gradientUnits="userSpaceOnUse"
       gradientTransform="translate(-0.95644444,-1.52178)"
       x1="315.13086"
       y1="75.645439"
       x2="315.13086"
       y2="136.67667" />
  </defs>
  <path
     id="path80804"
     style="display:inline;fill:#808080;fill-opacity:1;fill-rule:evenodd;stroke-width:1.18589"
     d="m 315.13086,2.8688472 c -9.43663,1.6e-5 -18.42673,1.8776042 -26.60352,5.2734375 -8.1768,3.3958333 -15.54053,8.3088283 -21.72461,14.3808593 -6.18407,6.072032 -11.18803,13.303421 -14.64648,21.332031 -3.45845,8.028611 -0.1114,16.377008 -0.11133,25.642578 -7e-5,9.26557 -3.34712,18.571 0.11133,26.59961 3.45845,8.028607 8.46241,15.258047 14.64648,21.330077 6.18408,6.07203 13.54781,10.98698 21.72461,14.38281 8.17679,3.39584 17.16689,5.27342 26.60352,5.27344 0.48703,-7.6e-4 0.97404,-0.007 1.46094,-0.0176 v 0.002 H 537 V 108.95674 H 370.76172 c 4.13454,-5.68819 7.31398,-11.939622 9.45898,-18.515627 2.14499,-6.576004 -1.52571,-13.476581 -1.52539,-20.464844 7e-5,-9.26557 2.86861,-18.092483 -0.58984,-26.121094 -3.45845,-8.02861 -8.46242,-15.259999 -14.64649,-21.332031 C 357.2749,16.451113 349.91117,11.538118 341.73438,8.1422847 333.55757,4.7464514 324.56749,2.8688632 315.13086,2.8688472 Z m -1.7207,27.7382808 a 33.475555,35.388443 0 0 1 0.30273,0 33.475555,35.388443 0 0 1 33.47656,35.386719 33.475555,35.388443 0 0 1 -33.47656,35.388673 33.475555,35.388443 0 0 1 -33.47461,-35.388673 33.475555,35.388443 0 0 1 33.17188,-35.386719 z" />
  <path
     id="path80811"
     style="display:inline;fill:url(#linearGradient82783);fill-opacity:1;fill-rule:nonzero;stroke:none;stroke-width:1.18589"
     d="m 315.13086,1.43359 c -18.87326,4e-5 -35.95999,7.51219 -48.32813,19.65625 -6.18407,6.07203 -11.18803,13.30147 -14.64648,21.330082 -3.45845,8.02861 0.84563,16.855524 0.8457,26.121094 -7e-5,9.265571 -4.30415,18.092482 -0.8457,26.121093 3.45845,8.028601 8.46241,15.260001 14.64648,21.332031 12.36815,12.14406 29.45487,19.65427 48.32813,19.6543 0.48703,-7.6e-4 0.97404,-0.007 1.46094,-0.0176 v 0.002 H 537 V 107.52148 H 370.76172 c 4.13454,-5.68819 7.31398,-11.939615 9.45898,-18.515621 2.14499,-6.576005 -2.48274,-13.955096 -2.48242,-20.943359 7e-5,-9.26557 3.82564,-17.613967 0.36719,-25.642578 C 374.64702,34.39131 369.64305,27.16188 363.45898,21.08984 351.09083,8.94578 334.00411,1.43363 315.13086,1.43359 Z m -2.19922,28.2168 a 33.475555,35.388443 0 0 1 0.30469,0 33.475555,35.388443 0 0 1 33.47461,35.388672 33.475555,35.388443 0 0 1 -33.47461,35.386718 33.475555,35.388443 0 0 1 -33.47656,-35.386718 33.475555,35.388443 0 0 1 33.17187,-35.388672 z" />
  <text
     y="110.95646"
     class="cls-1"
     id="wallace"
     style="font-weight:300;font-size:140px;font-family:'Heiti SC';fill:#4d5151;filter:url(#filter-5)">wallace</text>
  <text
     y="134.47826"
     x="418.52179"
     class="cls-2"
     id="text81859"
     style="letter-spacing:3.44044394px;display:inline"
     transform="matrix(0.99621113,0,0,1.0388569,3.5692362,-6.3065432)"><tspan
       id="tspan81857"
       x="418.52179">OLIVEIRA.COM</tspan></text>
</svg>
